<svg id="Layer_1" data-name="Layer 1" xmlns="http://www.w3.org/2000/svg" viewBox="0 0 309.68 275.78"><defs><style>.cls-1{fill:#333;}</style></defs><path class="cls-1" d="M291.67,108.31c-12.46-9.63-26.62-15.93-41.42-20.81-4.33-1.43-5.29-3.2-4.38-7.59,3.07-14.83,4.53-29.81,2.73-45C245,4.29,226.06-7.08,197.47,4.36c-14.2,5.69-26.48,14.46-37.64,24.7-4,3.67-6.33,3.53-10.3,0C136.9,17.73,123.16,8,106.76,2.74,83.3-4.82,67.45,4.16,62.05,28.05c-3.8,16.83-2.19,33.57,1.22,50.17,1.13,5.45.5,8-5.49,9.94-14.2,4.49-27.7,10.77-39.57,20C11.14,113.74,4.7,120,1.71,128.65-3.4,143.5,3.6,154.51,14.06,163.92c13,11.65,28.55,18.63,44.88,24,4.35,1.43,6.07,2.8,4.87,7.81A158.91,158.91,0,0,0,60,225.42c.34,5.09.42,10.21,1.05,15.27,3.94,31.55,23.85,42.73,53,29.84,1.41-.63,2.81-1.3,4.21-2a126.22,126.22,0,0,0,31.57-22c4.37-4.14,6.66-3.39,10.69.21,12.8,11.48,26.81,21.29,43.46,26.42,22.67,7,38-1.78,43.49-24.71,4.22-17.46,2.38-34.86-1.15-52.13-1-4.76-.18-7,4.83-8.57,14.88-4.72,29-11.22,41.25-21.11C315.72,147.86,315.38,126.64,291.67,108.31ZM168.23,41c12.32-10.59,25-20.58,41-25.12,12.9-3.66,20,.41,23.32,13.26a77.53,77.53,0,0,1,2.1,18.64,167.89,167.89,0,0,1-3.07,29.5c-.62,3.23-1.61,4.33-5.29,3.56-10.39-2.17-20.89-3.86-31.38-5.51A8.38,8.38,0,0,1,188.85,72a258,258,0,0,0-20.8-25C165.86,44.66,165.79,43.11,168.23,41ZM83.65,176.27c2.1-6.27,4.32-12.5,7-20.14,5.83,10,10.71,18.37,16.16,27.7-8.11-.26-15-2.18-21.89-3.82C82.61,179.46,83.17,177.69,83.65,176.27ZM86,95.34c6.46-1.38,12.87-3.1,20.7-3.43C101.22,101.35,96.39,109.73,91,119c-3.69-6.84-5.45-13.53-7.63-20C82.59,96.58,84.05,95.75,86,95.34Zm14.57,46.84c-1.55-3.17-1.33-5.69.15-8.72A393.56,393.56,0,0,1,123.4,93.63c2.31-3.62,5-5.17,9.21-5.1,7.53.14,15.07,0,22.61,0,34.56.83,23.85-5.67,42.55,23.89,3.9,6.16,6.85,12.92,10.51,19.25,2.33,4,2.38,7.54.22,11.76a421.44,421.44,0,0,1-22.6,39.15,8.85,8.85,0,0,1-7.52,4.41,331.8,331.8,0,0,1-47.19,0,8.28,8.28,0,0,1-7.07-4A361.84,361.84,0,0,1,100.53,142.18Zm102-51c8.13,1.58,14.36,2.77,20.59,4,2.14.42,3.88,1.25,2.95,4-2.19,6.37-4.4,12.72-7,20.34ZM219,155.77c2.76,7.92,4.91,14.12,7.08,20.31.77,2.2.69,3.69-2.18,4.21-6.66,1.21-13.28,2.68-21.43,4.36ZM152.77,56.28c1.77-2,3.07-.84,4.36.58,4.46,4.9,9.16,9.6,13.38,16.2H139.26C143,66.25,148.11,61.45,152.77,56.28ZM77.67,26.72c3.44-10.17,9.63-13.77,20-11.27C115,19.63,128.6,30.2,141.72,41.59c2,1.74,1.82,3.12.1,4.93a271.63,271.63,0,0,0-21.56,26.07c-1.52,2-3.44,2.49-5.7,2.76a232,232,0,0,0-31.31,5.58c-3.63,1-4.7-.41-5.32-3.62a190.54,190.54,0,0,1-3.27-27.76C74.71,42.78,75,34.58,77.67,26.72ZM69.81,171.3c-.91,2.54-1.71,4.34-5.1,3.17-15.38-5.32-30.26-11.55-42.32-22.89-10.27-9.68-10.18-18,.13-27.69,12.08-11.34,27-17.48,42.37-22.76l1.39-.49c2.52-.41,2.54,1.8,3.11,3.33C73.27,114.33,77,124.73,81,135.05a8.22,8.22,0,0,1-.22,6.35Q75.19,156.31,69.81,171.3ZM142,234.15c-13,11.12-26.32,21.77-43.41,26.11-1.93.48-3.91.72-4.79.88-8.29.12-12.64-3.71-15.13-10.11-4.48-11.51-4-23.49-3.09-35.44.43-5.72,1.76-11.37,2.48-17.08.43-3.46,2-4.49,5.37-3.65a240.27,240.27,0,0,0,32.08,5.39c2.45.27,4,1.63,5.35,3.48a282.78,282.78,0,0,0,20.79,25C143.34,230.56,144.57,232,142,234.15Zm14.45-14.39c-1.16,1.28-2.36.76-3.37-.36-4.65-5.16-9.59-10.1-14-16.68h31.4C166.39,209.45,161.23,214.46,156.46,219.76Zm74.81,31.05c-3.38,8.19-7.9,10.8-16.66,9.67-11.57-1.48-21.23-7.37-30.54-13.79-5.27-3.64-10.07-7.95-15.16-11.85-2.51-1.93-3.42-3.43-.71-6.23a230,230,0,0,0,20.73-25,8,8,0,0,1,6-3.46,217.23,217.23,0,0,0,30.73-5.22c3.91-1,5.52,0,6.25,4.11a212.72,212.72,0,0,1,3.1,27.68C234.75,234.88,234.45,243.09,231.27,250.81Zm58.87-102.29c-12.43,13.55-28.79,20.26-45.66,26.06-2.64.91-3.44-.53-4.22-2.69q-5.79-15.91-11.82-31.75a6.68,6.68,0,0,1,.07-5.1c4-10.57,7.91-21.15,11.7-31.78.85-2.38,1.8-3.13,4.34-2.25,15.78,5.52,31.11,11.81,43.41,23.66,3.74,3.6,6.68,7.7,7,13.07A17.15,17.15,0,0,1,290.14,148.52Z"/><path class="cls-1" d="M154.65,166.8a29.06,29.06,0,1,0-28.81-29.3A28.68,28.68,0,0,0,154.65,166.8Z"/></svg>